<svg width="10" height="13" viewBox="0 0 10 13" fill="none" xmlns="http://www.w3.org/2000/svg">
<path d="M1.35355 6.0203C1.15829 6.21556 0.841709 6.21556 0.646447 6.0203C0.451185 5.82504 0.451185 5.50846 0.646447 5.3132L1.35355 6.0203ZM5 1.66675L4.64645 1.31319L5 0.959641L5.35355 1.31319L5 1.66675ZM9.35355 5.31319C9.54882 5.50846 9.54882 5.82504 9.35355 6.0203C9.15829 6.21556 8.84171 6.21556 8.64645 6.0203L9.35355 5.31319ZM5.5 11.6667C5.5 11.9429 5.27614 12.1667 5 12.1667C4.72386 12.1667 4.5 11.9429 4.5 11.6667L5.5 11.6667ZM0.646447 5.3132L4.64645 1.31319L5.35355 2.0203L1.35355 6.0203L0.646447 5.3132ZM5.35355 1.31319L9.35355 5.31319L8.64645 6.0203L4.64645 2.0203L5.35355 1.31319ZM5.5 1.66675L5.5 11.6667L4.5 11.6667L4.5 1.66675L5.5 1.66675Z" fill="white"/>
</svg>
