<svg width="24" height="24" viewBox="0 0 24 24" fill="none" xmlns="http://www.w3.org/2000/svg">
<path fill-rule="evenodd" clip-rule="evenodd" d="M8 13C7.44772 13 7 12.5523 7 12L7 8C7 5.23858 9.23858 3 12 3C14.7614 3 17 5.23858 17 8L17 12C17 12.5523 16.5523 13 16 13C15.4477 13 15 12.5523 15 12L15 8C15 6.34315 13.6569 5 12 5C10.3431 5 9 6.34314 9 8L9 12C9 12.5523 8.55228 13 8 13Z" fill="#0B0B0B"/>
<path fill-rule="evenodd" clip-rule="evenodd" d="M7.61808 8C7.63882 8 7.65963 8 7.68051 8L16.3819 8C17.2019 7.99996 17.912 7.99991 18.4853 8.07436C19.1015 8.15438 19.6931 8.33421 20.191 8.79236C20.689 9.25051 20.9173 9.82513 21.0482 10.4326C21.17 10.9977 21.2289 11.7053 21.297 12.5225L21.816 18.7509C21.8176 18.77 21.8192 18.7891 21.8208 18.8081C21.859 19.2651 21.8957 19.7051 21.8759 20.069C21.8536 20.4768 21.7553 20.9518 21.3849 21.3542C21.0146 21.7567 20.5495 21.8941 20.1449 21.9502C19.7839 22.0002 19.3424 22.0001 18.8838 22C18.8647 22 18.8456 22 18.8264 22H5.17358C5.1544 22 5.13524 22 5.11612 22C4.65755 22.0001 4.21602 22.0002 3.85506 21.9502C3.45048 21.8941 2.98533 21.7567 2.61502 21.3542C2.2447 20.9518 2.14634 20.4768 2.12409 20.069C2.10425 19.7051 2.141 19.2651 2.17917 18.8081C2.18076 18.7891 2.18235 18.77 2.18395 18.7509L2.69779 12.5848C2.69952 12.564 2.70125 12.5432 2.70297 12.5226C2.77102 11.7053 2.82995 10.9977 2.95175 10.4326C3.08267 9.82513 3.311 9.25051 3.80892 8.79236C4.30684 8.33421 4.89844 8.15438 5.51468 8.07436C6.08799 7.99991 6.79804 7.99996 7.61808 8ZM5.77223 10.0577C5.37148 10.1097 5.23931 10.194 5.16314 10.2641C5.08697 10.3342 4.992 10.4589 4.90686 10.854C4.81568 11.277 4.76566 11.8535 4.69088 12.7509L4.17704 18.917C4.13236 19.4531 4.10976 19.7516 4.12113 19.96C4.12127 19.9627 4.12142 19.9654 4.12158 19.968C4.12415 19.9684 4.12678 19.9687 4.12946 19.9691C4.33625 19.9977 4.63559 20 5.17358 20H18.8264C19.3644 20 19.6637 19.9977 19.8705 19.9691C19.8732 19.9687 19.8758 19.9684 19.8784 19.968C19.8785 19.9654 19.8787 19.9627 19.8788 19.96C19.8902 19.7516 19.8676 19.4531 19.8229 18.917L19.3091 12.7509C19.2343 11.8535 19.1843 11.277 19.0931 10.854C19.008 10.4589 18.913 10.3342 18.8368 10.2641C18.7607 10.194 18.6285 10.1097 18.2277 10.0577C17.7986 10.002 17.2199 10 16.3195 10H7.68051C6.78005 10 6.20141 10.002 5.77223 10.0577Z" fill="#0B0B0B"/>
</svg>
