<svg width="14" height="14" viewBox="0 0 14 14" fill="none" xmlns="http://www.w3.org/2000/svg">
<path fill-rule="evenodd" clip-rule="evenodd" d="M0.811839 2.31378C0.142208 1.64411 0.619012 0.5 1.56315 0.5H12.4369C13.384 0.5 13.8558 1.64618 13.1883 2.31379C13.1883 2.31379 13.1883 2.31379 13.1883 2.31379L9 6.50258V12.437C9 13.3035 8.02571 13.7957 7.32826 13.3075C7.32824 13.3075 7.32829 13.3075 7.32826 13.3075L5.45326 11.9955C5.16927 11.7967 5 11.4717 5 11.125V6.50257L0.811839 2.31378C0.81183 2.31378 0.811848 2.31379 0.811839 2.31378ZM1.50071 1.57609C1.50176 1.5822 1.50446 1.5922 1.51897 1.6067L6 6.08841V11.125C6 11.1453 6.0099 11.1644 6.02659 11.1762M6.02659 11.1762L7.90159 12.4882C7.91486 12.4975 7.92472 12.4996 7.9325 12.4999C7.94211 12.5004 7.95434 12.4982 7.96672 12.4918C7.97904 12.4854 7.98735 12.4771 7.99204 12.4697C7.99569 12.464 8 12.4548 8 12.437V6.0884L12.4811 1.60673C12.4954 1.59244 12.4982 1.58247 12.4993 1.57617C12.5008 1.56711 12.5002 1.55366 12.494 1.53872C12.4878 1.52379 12.4789 1.51393 12.4715 1.50873C12.4664 1.50516 12.4575 1.5 12.4369 1.5H1.56315C1.54296 1.5 1.53397 1.50508 1.52875 1.50876C1.52124 1.51406 1.51219 1.52403 1.506 1.53896C1.49981 1.55388 1.49918 1.56721 1.50071 1.57609" fill="white"/>
</svg>
